<mxfile host="app.diagrams.net" modified="2023-02-16T10:02:00.724Z" agent="5.0 (Windows NT 10.0; Win64; x64) AppleWebKit/537.36 (KHTML, like Gecko) Chrome/109.0.0.0 Safari/537.36" etag="UBOwjOgTTWskSUagj6cB" version="20.8.20" type="github">
  <diagram name="Page-1" id="cKxdtmw_B6sG-cJ21ths">
    <mxGraphModel dx="794" dy="347" grid="1" gridSize="10" guides="1" tooltips="1" connect="1" arrows="1" fold="1" page="1" pageScale="1" pageWidth="1169" pageHeight="827" math="0" shadow="0">
      <root>
        <mxCell id="0" />
        <mxCell id="1" parent="0" />
        <mxCell id="NBX-dgyrtyVS7gOFUXcp-50" value="" style="rounded=0;whiteSpace=wrap;html=1;" vertex="1" parent="1">
          <mxGeometry x="710" y="40" width="130" height="490" as="geometry" />
        </mxCell>
        <mxCell id="NBX-dgyrtyVS7gOFUXcp-32" style="edgeStyle=orthogonalEdgeStyle;rounded=0;orthogonalLoop=1;jettySize=auto;html=1;entryX=0;entryY=0.5;entryDx=0;entryDy=0;" edge="1" parent="1" source="NBX-dgyrtyVS7gOFUXcp-31">
          <mxGeometry relative="1" as="geometry">
            <mxPoint x="490" y="70" as="targetPoint" />
          </mxGeometry>
        </mxCell>
        <mxCell id="NBX-dgyrtyVS7gOFUXcp-33" style="edgeStyle=orthogonalEdgeStyle;rounded=0;orthogonalLoop=1;jettySize=auto;html=1;entryX=0;entryY=0.5;entryDx=0;entryDy=0;" edge="1" parent="1" source="NBX-dgyrtyVS7gOFUXcp-31">
          <mxGeometry relative="1" as="geometry">
            <mxPoint x="490" y="150" as="targetPoint" />
          </mxGeometry>
        </mxCell>
        <mxCell id="NBX-dgyrtyVS7gOFUXcp-34" style="edgeStyle=orthogonalEdgeStyle;rounded=0;orthogonalLoop=1;jettySize=auto;html=1;entryX=0;entryY=0.5;entryDx=0;entryDy=0;" edge="1" parent="1" source="NBX-dgyrtyVS7gOFUXcp-31" target="NBX-dgyrtyVS7gOFUXcp-22">
          <mxGeometry relative="1" as="geometry" />
        </mxCell>
        <mxCell id="NBX-dgyrtyVS7gOFUXcp-35" style="edgeStyle=orthogonalEdgeStyle;rounded=0;orthogonalLoop=1;jettySize=auto;html=1;entryX=0;entryY=0.5;entryDx=0;entryDy=0;" edge="1" parent="1" source="NBX-dgyrtyVS7gOFUXcp-31" target="NBX-dgyrtyVS7gOFUXcp-23">
          <mxGeometry relative="1" as="geometry" />
        </mxCell>
        <mxCell id="NBX-dgyrtyVS7gOFUXcp-36" style="edgeStyle=orthogonalEdgeStyle;rounded=0;orthogonalLoop=1;jettySize=auto;html=1;entryX=0;entryY=0.5;entryDx=0;entryDy=0;" edge="1" parent="1" source="NBX-dgyrtyVS7gOFUXcp-31" target="NBX-dgyrtyVS7gOFUXcp-24">
          <mxGeometry relative="1" as="geometry" />
        </mxCell>
        <mxCell id="NBX-dgyrtyVS7gOFUXcp-38" style="edgeStyle=orthogonalEdgeStyle;rounded=0;orthogonalLoop=1;jettySize=auto;html=1;entryX=0;entryY=0.5;entryDx=0;entryDy=0;" edge="1" parent="1" source="NBX-dgyrtyVS7gOFUXcp-31" target="NBX-dgyrtyVS7gOFUXcp-25">
          <mxGeometry relative="1" as="geometry" />
        </mxCell>
        <mxCell id="NBX-dgyrtyVS7gOFUXcp-31" value="" style="rounded=0;whiteSpace=wrap;html=1;" vertex="1" parent="1">
          <mxGeometry x="190" y="50" width="170" height="350" as="geometry" />
        </mxCell>
        <mxCell id="NBX-dgyrtyVS7gOFUXcp-45" style="edgeStyle=orthogonalEdgeStyle;rounded=0;orthogonalLoop=1;jettySize=auto;html=1;" edge="1" parent="1" source="NBX-dgyrtyVS7gOFUXcp-1" target="NBX-dgyrtyVS7gOFUXcp-31">
          <mxGeometry relative="1" as="geometry" />
        </mxCell>
        <mxCell id="NBX-dgyrtyVS7gOFUXcp-1" value="User" style="shape=umlActor;verticalLabelPosition=bottom;verticalAlign=top;html=1;outlineConnect=0;" vertex="1" parent="1">
          <mxGeometry x="90" y="180" width="30" height="30" as="geometry" />
        </mxCell>
        <mxCell id="NBX-dgyrtyVS7gOFUXcp-2" value="Team Portal" style="rounded=1;whiteSpace=wrap;html=1;fillColor=#dae8fc;strokeColor=#6c8ebf;" vertex="1" parent="1">
          <mxGeometry x="210" y="90" width="120" height="60" as="geometry" />
        </mxCell>
        <mxCell id="NBX-dgyrtyVS7gOFUXcp-3" value="CRN Portal/ Colleague Portal" style="rounded=1;whiteSpace=wrap;html=1;fillColor=#dae8fc;strokeColor=#6c8ebf;" vertex="1" parent="1">
          <mxGeometry x="210" y="180" width="120" height="60" as="geometry" />
        </mxCell>
        <mxCell id="NBX-dgyrtyVS7gOFUXcp-4" value="Hiring Manager Portal" style="rounded=1;whiteSpace=wrap;html=1;fillColor=#dae8fc;strokeColor=#6c8ebf;" vertex="1" parent="1">
          <mxGeometry x="210" y="280" width="120" height="60" as="geometry" />
        </mxCell>
        <mxCell id="NBX-dgyrtyVS7gOFUXcp-18" value="" style="rounded=0;whiteSpace=wrap;html=1;" vertex="1" parent="1">
          <mxGeometry x="480" y="40" width="160" height="490" as="geometry" />
        </mxCell>
        <mxCell id="NBX-dgyrtyVS7gOFUXcp-74" value="" style="edgeStyle=orthogonalEdgeStyle;rounded=0;orthogonalLoop=1;jettySize=auto;html=1;strokeWidth=1;startArrow=classic;startFill=1;endArrow=classic;endFill=1;entryX=0;entryY=0.5;entryDx=0;entryDy=0;entryPerimeter=0;" edge="1" parent="1" source="NBX-dgyrtyVS7gOFUXcp-22" target="NBX-dgyrtyVS7gOFUXcp-56">
          <mxGeometry relative="1" as="geometry" />
        </mxCell>
        <mxCell id="NBX-dgyrtyVS7gOFUXcp-22" value="UserPersona" style="rounded=1;whiteSpace=wrap;html=1;fillColor=#d5e8d4;strokeColor=#82b366;" vertex="1" parent="1">
          <mxGeometry x="490" y="210" width="120" height="60" as="geometry" />
        </mxCell>
        <mxCell id="NBX-dgyrtyVS7gOFUXcp-76" value="" style="edgeStyle=orthogonalEdgeStyle;rounded=0;orthogonalLoop=1;jettySize=auto;html=1;strokeWidth=1;startArrow=classic;startFill=1;endArrow=classic;endFill=1;entryX=0;entryY=0.5;entryDx=0;entryDy=0;entryPerimeter=0;" edge="1" parent="1" source="NBX-dgyrtyVS7gOFUXcp-23" target="NBX-dgyrtyVS7gOFUXcp-57">
          <mxGeometry relative="1" as="geometry">
            <mxPoint x="710" y="285" as="targetPoint" />
          </mxGeometry>
        </mxCell>
        <mxCell id="NBX-dgyrtyVS7gOFUXcp-23" value="Company" style="rounded=1;whiteSpace=wrap;html=1;fillColor=#d5e8d4;strokeColor=#82b366;" vertex="1" parent="1">
          <mxGeometry x="490" y="290" width="120" height="60" as="geometry" />
        </mxCell>
        <mxCell id="NBX-dgyrtyVS7gOFUXcp-78" value="" style="edgeStyle=orthogonalEdgeStyle;rounded=0;orthogonalLoop=1;jettySize=auto;html=1;strokeWidth=1;startArrow=classic;startFill=1;endArrow=classic;endFill=1;entryX=0;entryY=0.5;entryDx=0;entryDy=0;entryPerimeter=0;" edge="1" parent="1" source="NBX-dgyrtyVS7gOFUXcp-24" target="NBX-dgyrtyVS7gOFUXcp-58">
          <mxGeometry relative="1" as="geometry" />
        </mxCell>
        <mxCell id="NBX-dgyrtyVS7gOFUXcp-24" value="Locales" style="rounded=1;whiteSpace=wrap;html=1;fillColor=#d5e8d4;strokeColor=#82b366;" vertex="1" parent="1">
          <mxGeometry x="490" y="370" width="120" height="60" as="geometry" />
        </mxCell>
        <mxCell id="NBX-dgyrtyVS7gOFUXcp-65" style="edgeStyle=orthogonalEdgeStyle;rounded=0;orthogonalLoop=1;jettySize=auto;html=1;exitX=1;exitY=0.5;exitDx=0;exitDy=0;entryX=1;entryY=0.5;entryDx=0;entryDy=0;dashed=1;strokeWidth=1;startArrow=none;startFill=0;endArrow=classic;endFill=1;" edge="1" parent="1" source="NBX-dgyrtyVS7gOFUXcp-25" target="NBX-dgyrtyVS7gOFUXcp-23">
          <mxGeometry relative="1" as="geometry" />
        </mxCell>
        <mxCell id="NBX-dgyrtyVS7gOFUXcp-67" style="edgeStyle=orthogonalEdgeStyle;rounded=0;orthogonalLoop=1;jettySize=auto;html=1;entryX=1;entryY=0.5;entryDx=0;entryDy=0;dashed=1;strokeWidth=1;startArrow=none;startFill=0;endArrow=classic;endFill=1;" edge="1" parent="1" source="NBX-dgyrtyVS7gOFUXcp-25" target="NBX-dgyrtyVS7gOFUXcp-22">
          <mxGeometry relative="1" as="geometry">
            <Array as="points">
              <mxPoint x="630" y="480" />
              <mxPoint x="630" y="240" />
            </Array>
          </mxGeometry>
        </mxCell>
        <mxCell id="NBX-dgyrtyVS7gOFUXcp-68" style="edgeStyle=orthogonalEdgeStyle;rounded=0;orthogonalLoop=1;jettySize=auto;html=1;exitX=0;exitY=0.5;exitDx=0;exitDy=0;entryX=0;entryY=0.5;entryDx=0;entryDy=0;dashed=1;strokeWidth=1;startArrow=none;startFill=0;endArrow=classic;endFill=1;" edge="1" parent="1" source="NBX-dgyrtyVS7gOFUXcp-25" target="NBX-dgyrtyVS7gOFUXcp-47">
          <mxGeometry relative="1" as="geometry" />
        </mxCell>
        <mxCell id="NBX-dgyrtyVS7gOFUXcp-69" style="edgeStyle=orthogonalEdgeStyle;rounded=0;orthogonalLoop=1;jettySize=auto;html=1;entryX=0;entryY=0.5;entryDx=0;entryDy=0;dashed=1;strokeWidth=1;startArrow=none;startFill=0;endArrow=classic;endFill=1;exitX=0;exitY=0.5;exitDx=0;exitDy=0;" edge="1" parent="1" source="NBX-dgyrtyVS7gOFUXcp-25" target="NBX-dgyrtyVS7gOFUXcp-46">
          <mxGeometry relative="1" as="geometry">
            <Array as="points">
              <mxPoint x="470" y="480" />
              <mxPoint x="470" y="80" />
            </Array>
          </mxGeometry>
        </mxCell>
        <mxCell id="NBX-dgyrtyVS7gOFUXcp-72" style="edgeStyle=orthogonalEdgeStyle;rounded=0;orthogonalLoop=1;jettySize=auto;html=1;entryX=1;entryY=0.5;entryDx=0;entryDy=0;dashed=1;strokeWidth=1;startArrow=none;startFill=0;endArrow=classic;endFill=1;" edge="1" parent="1" source="NBX-dgyrtyVS7gOFUXcp-25" target="NBX-dgyrtyVS7gOFUXcp-24">
          <mxGeometry relative="1" as="geometry">
            <Array as="points">
              <mxPoint x="630" y="480" />
              <mxPoint x="630" y="400" />
            </Array>
          </mxGeometry>
        </mxCell>
        <mxCell id="NBX-dgyrtyVS7gOFUXcp-79" value="" style="edgeStyle=orthogonalEdgeStyle;rounded=0;orthogonalLoop=1;jettySize=auto;html=1;strokeWidth=1;startArrow=classic;startFill=1;endArrow=classic;endFill=1;entryX=0;entryY=0.5;entryDx=0;entryDy=0;entryPerimeter=0;" edge="1" parent="1" source="NBX-dgyrtyVS7gOFUXcp-25" target="NBX-dgyrtyVS7gOFUXcp-59">
          <mxGeometry relative="1" as="geometry" />
        </mxCell>
        <mxCell id="NBX-dgyrtyVS7gOFUXcp-25" value="Jobs" style="rounded=1;whiteSpace=wrap;html=1;fillColor=#d5e8d4;strokeColor=#82b366;" vertex="1" parent="1">
          <mxGeometry x="490" y="450" width="120" height="60" as="geometry" />
        </mxCell>
        <mxCell id="NBX-dgyrtyVS7gOFUXcp-64" style="edgeStyle=orthogonalEdgeStyle;rounded=0;orthogonalLoop=1;jettySize=auto;html=1;exitX=1;exitY=0.5;exitDx=0;exitDy=0;entryX=0;entryY=0.5;entryDx=0;entryDy=0;entryPerimeter=0;strokeWidth=1;startArrow=classic;startFill=1;endArrow=classic;endFill=1;" edge="1" parent="1" source="NBX-dgyrtyVS7gOFUXcp-46" target="NBX-dgyrtyVS7gOFUXcp-53">
          <mxGeometry relative="1" as="geometry" />
        </mxCell>
        <mxCell id="NBX-dgyrtyVS7gOFUXcp-46" value="Skills" style="rounded=1;whiteSpace=wrap;html=1;fillColor=#d5e8d4;strokeColor=#82b366;" vertex="1" parent="1">
          <mxGeometry x="490" y="50" width="120" height="60" as="geometry" />
        </mxCell>
        <mxCell id="NBX-dgyrtyVS7gOFUXcp-73" style="edgeStyle=orthogonalEdgeStyle;rounded=0;orthogonalLoop=1;jettySize=auto;html=1;entryX=0;entryY=0.5;entryDx=0;entryDy=0;entryPerimeter=0;strokeWidth=1;startArrow=classic;startFill=1;endArrow=classic;endFill=1;" edge="1" parent="1" source="NBX-dgyrtyVS7gOFUXcp-47" target="NBX-dgyrtyVS7gOFUXcp-54">
          <mxGeometry relative="1" as="geometry" />
        </mxCell>
        <mxCell id="NBX-dgyrtyVS7gOFUXcp-47" value="UserPII" style="rounded=1;whiteSpace=wrap;html=1;fillColor=#d5e8d4;strokeColor=#82b366;" vertex="1" parent="1">
          <mxGeometry x="490" y="130" width="120" height="60" as="geometry" />
        </mxCell>
        <mxCell id="NBX-dgyrtyVS7gOFUXcp-53" value="Skills DB" style="strokeWidth=1;html=1;shape=mxgraph.flowchart.database;whiteSpace=wrap;fillStyle=auto;fillColor=#e1d5e7;strokeColor=#9673a6;" vertex="1" parent="1">
          <mxGeometry x="740" y="50" width="60" height="60" as="geometry" />
        </mxCell>
        <mxCell id="NBX-dgyrtyVS7gOFUXcp-54" value="&lt;br&gt;User PII DB" style="strokeWidth=1;html=1;shape=mxgraph.flowchart.database;whiteSpace=wrap;fillStyle=auto;fillColor=#e1d5e7;strokeColor=#9673a6;" vertex="1" parent="1">
          <mxGeometry x="740" y="130" width="60" height="60" as="geometry" />
        </mxCell>
        <mxCell id="NBX-dgyrtyVS7gOFUXcp-56" value="&lt;br&gt;Persona DB" style="strokeWidth=1;html=1;shape=mxgraph.flowchart.database;whiteSpace=wrap;fillStyle=auto;fillColor=#e1d5e7;strokeColor=#9673a6;" vertex="1" parent="1">
          <mxGeometry x="740" y="210" width="60" height="60" as="geometry" />
        </mxCell>
        <mxCell id="NBX-dgyrtyVS7gOFUXcp-57" value="&lt;br&gt;Company DB" style="strokeWidth=1;html=1;shape=mxgraph.flowchart.database;whiteSpace=wrap;fillStyle=auto;fillColor=#e1d5e7;strokeColor=#9673a6;" vertex="1" parent="1">
          <mxGeometry x="740" y="290" width="60" height="60" as="geometry" />
        </mxCell>
        <mxCell id="NBX-dgyrtyVS7gOFUXcp-58" value="&lt;br&gt;Locales DB" style="strokeWidth=1;html=1;shape=mxgraph.flowchart.database;whiteSpace=wrap;fillStyle=auto;fillColor=#e1d5e7;strokeColor=#9673a6;" vertex="1" parent="1">
          <mxGeometry x="740" y="370" width="60" height="60" as="geometry" />
        </mxCell>
        <mxCell id="NBX-dgyrtyVS7gOFUXcp-59" value="Jobs DB" style="strokeWidth=1;html=1;shape=mxgraph.flowchart.database;whiteSpace=wrap;fillStyle=auto;fillColor=#e1d5e7;strokeColor=#9673a6;" vertex="1" parent="1">
          <mxGeometry x="740" y="450" width="60" height="60" as="geometry" />
        </mxCell>
      </root>
    </mxGraphModel>
  </diagram>
</mxfile>
